<mxfile host="app.diagrams.net" agent="Mozilla/5.0 (Windows NT 10.0; Win64; x64) AppleWebKit/537.36 (KHTML, like Gecko) Chrome/131.0.0.0 Safari/537.36" version="26.0.8">
  <diagram name="Halaman-1" id="jWy55CJGLqWeehgoqX5z">
    <mxGraphModel dx="1059" dy="656" grid="1" gridSize="10" guides="1" tooltips="1" connect="1" arrows="1" fold="1" page="1" pageScale="1" pageWidth="827" pageHeight="1169" math="0" shadow="0">
      <root>
        <mxCell id="0" />
        <mxCell id="1" parent="0" />
        <mxCell id="iyjsZGrL3Ki6pQ_qcTPa-22" value="" style="rounded=0;whiteSpace=wrap;html=1;fillColor=#dae8fc;strokeColor=#6c8ebf;" vertex="1" parent="1">
          <mxGeometry x="70" y="115" width="640" height="295" as="geometry" />
        </mxCell>
        <mxCell id="iyjsZGrL3Ki6pQ_qcTPa-4" value="&lt;font style=&quot;font-size: 17px;&quot;&gt;caller&lt;/font&gt;" style="rounded=1;whiteSpace=wrap;html=1;" vertex="1" parent="1">
          <mxGeometry x="182" y="150" width="110" height="40" as="geometry" />
        </mxCell>
        <mxCell id="iyjsZGrL3Ki6pQ_qcTPa-11" value="" style="edgeStyle=orthogonalEdgeStyle;rounded=0;orthogonalLoop=1;jettySize=auto;html=1;" edge="1" parent="1" source="iyjsZGrL3Ki6pQ_qcTPa-6" target="iyjsZGrL3Ki6pQ_qcTPa-4">
          <mxGeometry relative="1" as="geometry" />
        </mxCell>
        <mxCell id="iyjsZGrL3Ki6pQ_qcTPa-14" style="edgeStyle=orthogonalEdgeStyle;rounded=0;orthogonalLoop=1;jettySize=auto;html=1;entryX=0;entryY=0.75;entryDx=0;entryDy=0;" edge="1" parent="1" source="iyjsZGrL3Ki6pQ_qcTPa-6" target="iyjsZGrL3Ki6pQ_qcTPa-7">
          <mxGeometry relative="1" as="geometry">
            <Array as="points">
              <mxPoint x="312" y="270" />
              <mxPoint x="312" y="270" />
            </Array>
          </mxGeometry>
        </mxCell>
        <mxCell id="iyjsZGrL3Ki6pQ_qcTPa-6" value="&lt;font style=&quot;font-size: 17px;&quot;&gt;collection&lt;/font&gt;" style="rounded=1;whiteSpace=wrap;html=1;" vertex="1" parent="1">
          <mxGeometry x="182" y="240" width="110" height="40" as="geometry" />
        </mxCell>
        <mxCell id="iyjsZGrL3Ki6pQ_qcTPa-13" style="edgeStyle=orthogonalEdgeStyle;rounded=0;orthogonalLoop=1;jettySize=auto;html=1;entryX=1;entryY=0.5;entryDx=0;entryDy=0;" edge="1" parent="1" source="iyjsZGrL3Ki6pQ_qcTPa-7" target="iyjsZGrL3Ki6pQ_qcTPa-6">
          <mxGeometry relative="1" as="geometry" />
        </mxCell>
        <mxCell id="iyjsZGrL3Ki6pQ_qcTPa-16" style="edgeStyle=orthogonalEdgeStyle;rounded=0;orthogonalLoop=1;jettySize=auto;html=1;entryX=0;entryY=0.75;entryDx=0;entryDy=0;" edge="1" parent="1" source="iyjsZGrL3Ki6pQ_qcTPa-7" target="iyjsZGrL3Ki6pQ_qcTPa-8">
          <mxGeometry relative="1" as="geometry">
            <Array as="points">
              <mxPoint x="492" y="270" />
              <mxPoint x="492" y="270" />
            </Array>
          </mxGeometry>
        </mxCell>
        <mxCell id="iyjsZGrL3Ki6pQ_qcTPa-18" value="" style="edgeStyle=orthogonalEdgeStyle;rounded=0;orthogonalLoop=1;jettySize=auto;html=1;" edge="1" parent="1" source="iyjsZGrL3Ki6pQ_qcTPa-7" target="iyjsZGrL3Ki6pQ_qcTPa-9">
          <mxGeometry relative="1" as="geometry" />
        </mxCell>
        <mxCell id="iyjsZGrL3Ki6pQ_qcTPa-27" value="" style="edgeStyle=orthogonalEdgeStyle;rounded=0;orthogonalLoop=1;jettySize=auto;html=1;" edge="1" parent="1" source="iyjsZGrL3Ki6pQ_qcTPa-7" target="iyjsZGrL3Ki6pQ_qcTPa-26">
          <mxGeometry relative="1" as="geometry" />
        </mxCell>
        <mxCell id="iyjsZGrL3Ki6pQ_qcTPa-7" value="&lt;font style=&quot;font-size: 17px;&quot;&gt;__tests__&lt;/font&gt;" style="rounded=1;whiteSpace=wrap;html=1;" vertex="1" parent="1">
          <mxGeometry x="362" y="240" width="110" height="40" as="geometry" />
        </mxCell>
        <mxCell id="iyjsZGrL3Ki6pQ_qcTPa-15" style="edgeStyle=orthogonalEdgeStyle;rounded=0;orthogonalLoop=1;jettySize=auto;html=1;entryX=1;entryY=0.5;entryDx=0;entryDy=0;" edge="1" parent="1" source="iyjsZGrL3Ki6pQ_qcTPa-8" target="iyjsZGrL3Ki6pQ_qcTPa-7">
          <mxGeometry relative="1" as="geometry" />
        </mxCell>
        <mxCell id="iyjsZGrL3Ki6pQ_qcTPa-8" value="&lt;font style=&quot;font-size: 17px;&quot;&gt;test-data&lt;/font&gt;" style="rounded=1;whiteSpace=wrap;html=1;" vertex="1" parent="1">
          <mxGeometry x="542" y="240" width="110" height="40" as="geometry" />
        </mxCell>
        <mxCell id="iyjsZGrL3Ki6pQ_qcTPa-9" value="&lt;span style=&quot;font-size: 17px;&quot;&gt;utilities&lt;/span&gt;&lt;div&gt;&lt;span style=&quot;font-size: 17px;&quot;&gt;(verifier)&lt;/span&gt;&lt;/div&gt;" style="rounded=1;whiteSpace=wrap;html=1;" vertex="1" parent="1">
          <mxGeometry x="357" y="150" width="120" height="50" as="geometry" />
        </mxCell>
        <mxCell id="iyjsZGrL3Ki6pQ_qcTPa-20" value="" style="edgeStyle=orthogonalEdgeStyle;rounded=0;orthogonalLoop=1;jettySize=auto;html=1;" edge="1" parent="1" source="iyjsZGrL3Ki6pQ_qcTPa-10" target="iyjsZGrL3Ki6pQ_qcTPa-6">
          <mxGeometry relative="1" as="geometry" />
        </mxCell>
        <mxCell id="iyjsZGrL3Ki6pQ_qcTPa-10" value="&lt;font style=&quot;font-size: 17px;&quot;&gt;config&lt;/font&gt;&lt;div&gt;&lt;font style=&quot;font-size: 17px;&quot;&gt;(global-variable)&lt;/font&gt;&lt;/div&gt;" style="rounded=1;whiteSpace=wrap;html=1;" vertex="1" parent="1">
          <mxGeometry x="167" y="330" width="140" height="55" as="geometry" />
        </mxCell>
        <mxCell id="iyjsZGrL3Ki6pQ_qcTPa-12" style="edgeStyle=orthogonalEdgeStyle;rounded=0;orthogonalLoop=1;jettySize=auto;html=1;entryX=0.352;entryY=0.021;entryDx=0;entryDy=0;entryPerimeter=0;" edge="1" parent="1" source="iyjsZGrL3Ki6pQ_qcTPa-4" target="iyjsZGrL3Ki6pQ_qcTPa-6">
          <mxGeometry relative="1" as="geometry">
            <Array as="points">
              <mxPoint x="221" y="200" />
              <mxPoint x="221" y="200" />
            </Array>
          </mxGeometry>
        </mxCell>
        <mxCell id="iyjsZGrL3Ki6pQ_qcTPa-17" style="edgeStyle=orthogonalEdgeStyle;rounded=0;orthogonalLoop=1;jettySize=auto;html=1;entryX=0.662;entryY=0.021;entryDx=0;entryDy=0;entryPerimeter=0;" edge="1" parent="1" source="iyjsZGrL3Ki6pQ_qcTPa-9" target="iyjsZGrL3Ki6pQ_qcTPa-7">
          <mxGeometry relative="1" as="geometry">
            <Array as="points">
              <mxPoint x="435" y="210" />
              <mxPoint x="435" y="210" />
            </Array>
          </mxGeometry>
        </mxCell>
        <mxCell id="iyjsZGrL3Ki6pQ_qcTPa-21" value="&lt;font style=&quot;font-size: 19px;&quot;&gt;&lt;b&gt;Architecture Folder&lt;/b&gt;&lt;/font&gt;&lt;div&gt;&lt;font style=&quot;font-size: 19px;&quot;&gt;&lt;b&gt;Automation Testing using Jest for Cart&lt;/b&gt;&lt;/font&gt;&lt;/div&gt;" style="text;html=1;align=center;verticalAlign=middle;whiteSpace=wrap;rounded=0;fillColor=#ffe6cc;strokeColor=#d79b00;" vertex="1" parent="1">
          <mxGeometry x="70" y="40" width="640" height="60" as="geometry" />
        </mxCell>
        <mxCell id="iyjsZGrL3Ki6pQ_qcTPa-25" style="edgeStyle=orthogonalEdgeStyle;rounded=0;orthogonalLoop=1;jettySize=auto;html=1;entryX=0.398;entryY=0.021;entryDx=0;entryDy=0;entryPerimeter=0;" edge="1" parent="1" source="iyjsZGrL3Ki6pQ_qcTPa-6" target="iyjsZGrL3Ki6pQ_qcTPa-10">
          <mxGeometry relative="1" as="geometry">
            <Array as="points">
              <mxPoint x="223" y="290" />
              <mxPoint x="223" y="290" />
            </Array>
          </mxGeometry>
        </mxCell>
        <mxCell id="iyjsZGrL3Ki6pQ_qcTPa-26" value="&lt;font style=&quot;font-size: 17px;&quot;&gt;Run _test_&lt;/font&gt;" style="rounded=1;whiteSpace=wrap;html=1;fillColor=#d5e8d4;strokeColor=#82b366;" vertex="1" parent="1">
          <mxGeometry x="362" y="337.5" width="110" height="40" as="geometry" />
        </mxCell>
      </root>
    </mxGraphModel>
  </diagram>
</mxfile>
